<mxfile host="app.diagrams.net" modified="2023-01-28T02:57:26.305Z" agent="5.0 (Windows NT 10.0; Win64; x64) AppleWebKit/537.36 (KHTML, like Gecko) Chrome/109.0.0.0 Safari/537.36" etag="v9YGqoEzRSzNHQkjNUEV" version="20.8.13" type="github">
  <diagram id="C5RBs43oDa-KdzZeNtuy" name="Page-1">
    <mxGraphModel dx="1035" dy="544" grid="1" gridSize="10" guides="1" tooltips="1" connect="1" arrows="1" fold="1" page="1" pageScale="1" pageWidth="827" pageHeight="1169" math="0" shadow="0">
      <root>
        <mxCell id="WIyWlLk6GJQsqaUBKTNV-0" />
        <mxCell id="WIyWlLk6GJQsqaUBKTNV-1" parent="WIyWlLk6GJQsqaUBKTNV-0" />
        <mxCell id="nXRS1IvIqKvb1MXSQ3nY-4" value="" style="edgeStyle=orthogonalEdgeStyle;rounded=0;orthogonalLoop=1;jettySize=auto;html=1;" edge="1" parent="WIyWlLk6GJQsqaUBKTNV-1" source="nXRS1IvIqKvb1MXSQ3nY-0" target="nXRS1IvIqKvb1MXSQ3nY-1">
          <mxGeometry relative="1" as="geometry" />
        </mxCell>
        <mxCell id="nXRS1IvIqKvb1MXSQ3nY-0" value="Start" style="strokeWidth=2;html=1;shape=mxgraph.flowchart.start_1;whiteSpace=wrap;shadow=1;" vertex="1" parent="WIyWlLk6GJQsqaUBKTNV-1">
          <mxGeometry x="80" y="40" width="100" height="60" as="geometry" />
        </mxCell>
        <mxCell id="nXRS1IvIqKvb1MXSQ3nY-5" value="" style="edgeStyle=orthogonalEdgeStyle;rounded=0;orthogonalLoop=1;jettySize=auto;html=1;" edge="1" parent="WIyWlLk6GJQsqaUBKTNV-1" source="nXRS1IvIqKvb1MXSQ3nY-1" target="nXRS1IvIqKvb1MXSQ3nY-2">
          <mxGeometry relative="1" as="geometry" />
        </mxCell>
        <mxCell id="nXRS1IvIqKvb1MXSQ3nY-1" value="Loading" style="rounded=1;whiteSpace=wrap;html=1;absoluteArcSize=1;arcSize=14;strokeWidth=2;shadow=1;" vertex="1" parent="WIyWlLk6GJQsqaUBKTNV-1">
          <mxGeometry x="67.5" y="140" width="125" height="60" as="geometry" />
        </mxCell>
        <mxCell id="nXRS1IvIqKvb1MXSQ3nY-12" value="" style="edgeStyle=orthogonalEdgeStyle;rounded=0;orthogonalLoop=1;jettySize=auto;html=1;" edge="1" parent="WIyWlLk6GJQsqaUBKTNV-1" source="nXRS1IvIqKvb1MXSQ3nY-2" target="nXRS1IvIqKvb1MXSQ3nY-11">
          <mxGeometry relative="1" as="geometry" />
        </mxCell>
        <mxCell id="nXRS1IvIqKvb1MXSQ3nY-30" style="edgeStyle=orthogonalEdgeStyle;rounded=0;orthogonalLoop=1;jettySize=auto;html=1;exitX=1;exitY=0.5;exitDx=0;exitDy=0;entryX=0;entryY=0.5;entryDx=0;entryDy=0;" edge="1" parent="WIyWlLk6GJQsqaUBKTNV-1" source="nXRS1IvIqKvb1MXSQ3nY-2" target="nXRS1IvIqKvb1MXSQ3nY-13">
          <mxGeometry relative="1" as="geometry" />
        </mxCell>
        <mxCell id="nXRS1IvIqKvb1MXSQ3nY-31" style="edgeStyle=orthogonalEdgeStyle;rounded=0;orthogonalLoop=1;jettySize=auto;html=1;exitX=1;exitY=0.5;exitDx=0;exitDy=0;entryX=0;entryY=0.5;entryDx=0;entryDy=0;" edge="1" parent="WIyWlLk6GJQsqaUBKTNV-1" source="nXRS1IvIqKvb1MXSQ3nY-2" target="nXRS1IvIqKvb1MXSQ3nY-14">
          <mxGeometry relative="1" as="geometry" />
        </mxCell>
        <mxCell id="nXRS1IvIqKvb1MXSQ3nY-32" style="edgeStyle=orthogonalEdgeStyle;rounded=0;orthogonalLoop=1;jettySize=auto;html=1;exitX=1;exitY=0.5;exitDx=0;exitDy=0;entryX=0;entryY=0.5;entryDx=0;entryDy=0;" edge="1" parent="WIyWlLk6GJQsqaUBKTNV-1" source="nXRS1IvIqKvb1MXSQ3nY-2" target="nXRS1IvIqKvb1MXSQ3nY-15">
          <mxGeometry relative="1" as="geometry" />
        </mxCell>
        <mxCell id="nXRS1IvIqKvb1MXSQ3nY-33" style="edgeStyle=orthogonalEdgeStyle;rounded=0;orthogonalLoop=1;jettySize=auto;html=1;exitX=1;exitY=0.5;exitDx=0;exitDy=0;entryX=0;entryY=0.5;entryDx=0;entryDy=0;" edge="1" parent="WIyWlLk6GJQsqaUBKTNV-1" source="nXRS1IvIqKvb1MXSQ3nY-2" target="nXRS1IvIqKvb1MXSQ3nY-16">
          <mxGeometry relative="1" as="geometry" />
        </mxCell>
        <mxCell id="nXRS1IvIqKvb1MXSQ3nY-2" value="Main Menu" style="rounded=1;whiteSpace=wrap;html=1;absoluteArcSize=1;arcSize=14;strokeWidth=2;shadow=1;" vertex="1" parent="WIyWlLk6GJQsqaUBKTNV-1">
          <mxGeometry x="67.5" y="240" width="125" height="60" as="geometry" />
        </mxCell>
        <mxCell id="nXRS1IvIqKvb1MXSQ3nY-38" value="" style="edgeStyle=orthogonalEdgeStyle;rounded=0;orthogonalLoop=1;jettySize=auto;html=1;entryX=0.5;entryY=0;entryDx=0;entryDy=0;" edge="1" parent="WIyWlLk6GJQsqaUBKTNV-1" source="nXRS1IvIqKvb1MXSQ3nY-11" target="nXRS1IvIqKvb1MXSQ3nY-37">
          <mxGeometry relative="1" as="geometry">
            <Array as="points">
              <mxPoint x="550" y="270" />
              <mxPoint x="550" y="220" />
              <mxPoint x="630" y="220" />
            </Array>
          </mxGeometry>
        </mxCell>
        <mxCell id="nXRS1IvIqKvb1MXSQ3nY-49" style="edgeStyle=orthogonalEdgeStyle;rounded=0;orthogonalLoop=1;jettySize=auto;html=1;exitX=1;exitY=0.5;exitDx=0;exitDy=0;entryX=0.5;entryY=0;entryDx=0;entryDy=0;" edge="1" parent="WIyWlLk6GJQsqaUBKTNV-1" source="nXRS1IvIqKvb1MXSQ3nY-11" target="nXRS1IvIqKvb1MXSQ3nY-39">
          <mxGeometry relative="1" as="geometry">
            <Array as="points">
              <mxPoint x="550" y="270" />
              <mxPoint x="550" y="220" />
              <mxPoint x="767" y="220" />
            </Array>
          </mxGeometry>
        </mxCell>
        <mxCell id="nXRS1IvIqKvb1MXSQ3nY-50" style="edgeStyle=orthogonalEdgeStyle;rounded=0;orthogonalLoop=1;jettySize=auto;html=1;exitX=1;exitY=0.5;exitDx=0;exitDy=0;entryX=0.5;entryY=0;entryDx=0;entryDy=0;" edge="1" parent="WIyWlLk6GJQsqaUBKTNV-1" source="nXRS1IvIqKvb1MXSQ3nY-11" target="nXRS1IvIqKvb1MXSQ3nY-40">
          <mxGeometry relative="1" as="geometry">
            <Array as="points">
              <mxPoint x="550" y="270" />
              <mxPoint x="550" y="220" />
              <mxPoint x="900" y="220" />
            </Array>
          </mxGeometry>
        </mxCell>
        <mxCell id="nXRS1IvIqKvb1MXSQ3nY-51" style="edgeStyle=orthogonalEdgeStyle;rounded=0;orthogonalLoop=1;jettySize=auto;html=1;exitX=1;exitY=0.5;exitDx=0;exitDy=0;entryX=0.5;entryY=0;entryDx=0;entryDy=0;" edge="1" parent="WIyWlLk6GJQsqaUBKTNV-1" source="nXRS1IvIqKvb1MXSQ3nY-11" target="nXRS1IvIqKvb1MXSQ3nY-41">
          <mxGeometry relative="1" as="geometry">
            <Array as="points">
              <mxPoint x="550" y="270" />
              <mxPoint x="550" y="220" />
              <mxPoint x="1030" y="220" />
            </Array>
          </mxGeometry>
        </mxCell>
        <mxCell id="nXRS1IvIqKvb1MXSQ3nY-52" style="edgeStyle=orthogonalEdgeStyle;rounded=0;orthogonalLoop=1;jettySize=auto;html=1;exitX=1;exitY=0.5;exitDx=0;exitDy=0;entryX=0.5;entryY=0;entryDx=0;entryDy=0;" edge="1" parent="WIyWlLk6GJQsqaUBKTNV-1" source="nXRS1IvIqKvb1MXSQ3nY-11" target="nXRS1IvIqKvb1MXSQ3nY-42">
          <mxGeometry relative="1" as="geometry">
            <Array as="points">
              <mxPoint x="550" y="270" />
              <mxPoint x="550" y="220" />
              <mxPoint x="1160" y="220" />
            </Array>
          </mxGeometry>
        </mxCell>
        <mxCell id="nXRS1IvIqKvb1MXSQ3nY-53" style="edgeStyle=orthogonalEdgeStyle;rounded=0;orthogonalLoop=1;jettySize=auto;html=1;exitX=1;exitY=0.5;exitDx=0;exitDy=0;entryX=0.5;entryY=0;entryDx=0;entryDy=0;" edge="1" parent="WIyWlLk6GJQsqaUBKTNV-1" source="nXRS1IvIqKvb1MXSQ3nY-11" target="nXRS1IvIqKvb1MXSQ3nY-43">
          <mxGeometry relative="1" as="geometry">
            <Array as="points">
              <mxPoint x="550" y="270" />
              <mxPoint x="550" y="220" />
              <mxPoint x="1290" y="220" />
            </Array>
          </mxGeometry>
        </mxCell>
        <mxCell id="nXRS1IvIqKvb1MXSQ3nY-11" value="Play" style="whiteSpace=wrap;html=1;rounded=1;arcSize=14;strokeWidth=2;shadow=1;" vertex="1" parent="WIyWlLk6GJQsqaUBKTNV-1">
          <mxGeometry x="250" y="240" width="120" height="60" as="geometry" />
        </mxCell>
        <mxCell id="nXRS1IvIqKvb1MXSQ3nY-13" value="Continue" style="whiteSpace=wrap;html=1;rounded=1;arcSize=14;strokeWidth=2;shadow=1;" vertex="1" parent="WIyWlLk6GJQsqaUBKTNV-1">
          <mxGeometry x="250" y="320" width="120" height="60" as="geometry" />
        </mxCell>
        <mxCell id="nXRS1IvIqKvb1MXSQ3nY-29" value="" style="edgeStyle=orthogonalEdgeStyle;rounded=0;orthogonalLoop=1;jettySize=auto;html=1;" edge="1" parent="WIyWlLk6GJQsqaUBKTNV-1" source="nXRS1IvIqKvb1MXSQ3nY-14" target="nXRS1IvIqKvb1MXSQ3nY-28">
          <mxGeometry relative="1" as="geometry" />
        </mxCell>
        <mxCell id="nXRS1IvIqKvb1MXSQ3nY-36" style="edgeStyle=orthogonalEdgeStyle;rounded=0;orthogonalLoop=1;jettySize=auto;html=1;exitX=1;exitY=0.5;exitDx=0;exitDy=0;entryX=0;entryY=0.5;entryDx=0;entryDy=0;" edge="1" parent="WIyWlLk6GJQsqaUBKTNV-1" source="nXRS1IvIqKvb1MXSQ3nY-14" target="nXRS1IvIqKvb1MXSQ3nY-35">
          <mxGeometry relative="1" as="geometry" />
        </mxCell>
        <mxCell id="nXRS1IvIqKvb1MXSQ3nY-14" value="Option" style="whiteSpace=wrap;html=1;rounded=1;arcSize=14;strokeWidth=2;shadow=1;" vertex="1" parent="WIyWlLk6GJQsqaUBKTNV-1">
          <mxGeometry x="250" y="400" width="120" height="60" as="geometry" />
        </mxCell>
        <mxCell id="nXRS1IvIqKvb1MXSQ3nY-15" value="Credit" style="whiteSpace=wrap;html=1;rounded=1;arcSize=14;strokeWidth=2;shadow=1;" vertex="1" parent="WIyWlLk6GJQsqaUBKTNV-1">
          <mxGeometry x="250" y="480" width="120" height="60" as="geometry" />
        </mxCell>
        <mxCell id="nXRS1IvIqKvb1MXSQ3nY-18" value="" style="edgeStyle=orthogonalEdgeStyle;rounded=0;orthogonalLoop=1;jettySize=auto;html=1;" edge="1" parent="WIyWlLk6GJQsqaUBKTNV-1" source="nXRS1IvIqKvb1MXSQ3nY-16" target="nXRS1IvIqKvb1MXSQ3nY-17">
          <mxGeometry relative="1" as="geometry" />
        </mxCell>
        <mxCell id="nXRS1IvIqKvb1MXSQ3nY-16" value="Quit" style="whiteSpace=wrap;html=1;rounded=1;arcSize=14;strokeWidth=2;shadow=1;" vertex="1" parent="WIyWlLk6GJQsqaUBKTNV-1">
          <mxGeometry x="250" y="560" width="120" height="60" as="geometry" />
        </mxCell>
        <mxCell id="nXRS1IvIqKvb1MXSQ3nY-26" value="" style="edgeStyle=orthogonalEdgeStyle;rounded=0;orthogonalLoop=1;jettySize=auto;html=1;" edge="1" parent="WIyWlLk6GJQsqaUBKTNV-1" source="nXRS1IvIqKvb1MXSQ3nY-17" target="nXRS1IvIqKvb1MXSQ3nY-25">
          <mxGeometry relative="1" as="geometry" />
        </mxCell>
        <mxCell id="nXRS1IvIqKvb1MXSQ3nY-69" style="edgeStyle=orthogonalEdgeStyle;rounded=0;orthogonalLoop=1;jettySize=auto;html=1;exitX=0;exitY=0.5;exitDx=0;exitDy=0;entryX=0.75;entryY=1;entryDx=0;entryDy=0;" edge="1" parent="WIyWlLk6GJQsqaUBKTNV-1" source="nXRS1IvIqKvb1MXSQ3nY-17" target="nXRS1IvIqKvb1MXSQ3nY-2">
          <mxGeometry relative="1" as="geometry" />
        </mxCell>
        <mxCell id="nXRS1IvIqKvb1MXSQ3nY-17" value="Are you sure?" style="rhombus;whiteSpace=wrap;html=1;rounded=1;arcSize=14;strokeWidth=2;shadow=1;" vertex="1" parent="WIyWlLk6GJQsqaUBKTNV-1">
          <mxGeometry x="245" y="679" width="130" height="100" as="geometry" />
        </mxCell>
        <mxCell id="nXRS1IvIqKvb1MXSQ3nY-24" value="No" style="text;html=1;strokeColor=none;fillColor=none;align=center;verticalAlign=middle;whiteSpace=wrap;rounded=0;" vertex="1" parent="WIyWlLk6GJQsqaUBKTNV-1">
          <mxGeometry x="207.5" y="706" width="37.5" height="30" as="geometry" />
        </mxCell>
        <mxCell id="nXRS1IvIqKvb1MXSQ3nY-25" value="Close" style="strokeWidth=2;html=1;shape=mxgraph.flowchart.start_1;whiteSpace=wrap;shadow=1;" vertex="1" parent="WIyWlLk6GJQsqaUBKTNV-1">
          <mxGeometry x="260" y="809" width="100" height="60" as="geometry" />
        </mxCell>
        <mxCell id="nXRS1IvIqKvb1MXSQ3nY-27" value="Yes" style="text;html=1;strokeColor=none;fillColor=none;align=center;verticalAlign=middle;whiteSpace=wrap;rounded=0;" vertex="1" parent="WIyWlLk6GJQsqaUBKTNV-1">
          <mxGeometry x="300" y="779" width="60" height="30" as="geometry" />
        </mxCell>
        <mxCell id="nXRS1IvIqKvb1MXSQ3nY-28" value="Music" style="whiteSpace=wrap;html=1;rounded=1;arcSize=14;strokeWidth=2;shadow=1;" vertex="1" parent="WIyWlLk6GJQsqaUBKTNV-1">
          <mxGeometry x="408" y="380" width="120" height="60" as="geometry" />
        </mxCell>
        <mxCell id="nXRS1IvIqKvb1MXSQ3nY-35" value="Sound" style="whiteSpace=wrap;html=1;rounded=1;arcSize=14;strokeWidth=2;shadow=1;" vertex="1" parent="WIyWlLk6GJQsqaUBKTNV-1">
          <mxGeometry x="408" y="450" width="120" height="60" as="geometry" />
        </mxCell>
        <mxCell id="nXRS1IvIqKvb1MXSQ3nY-55" value="" style="edgeStyle=orthogonalEdgeStyle;rounded=0;orthogonalLoop=1;jettySize=auto;html=1;" edge="1" parent="WIyWlLk6GJQsqaUBKTNV-1" source="nXRS1IvIqKvb1MXSQ3nY-37" target="nXRS1IvIqKvb1MXSQ3nY-54">
          <mxGeometry relative="1" as="geometry" />
        </mxCell>
        <mxCell id="nXRS1IvIqKvb1MXSQ3nY-37" value="Ch.1" style="whiteSpace=wrap;html=1;rounded=1;arcSize=14;strokeWidth=2;shadow=1;" vertex="1" parent="WIyWlLk6GJQsqaUBKTNV-1">
          <mxGeometry x="570" y="240" width="120" height="60" as="geometry" />
        </mxCell>
        <mxCell id="nXRS1IvIqKvb1MXSQ3nY-87" value="" style="edgeStyle=orthogonalEdgeStyle;rounded=0;orthogonalLoop=1;jettySize=auto;html=1;" edge="1" parent="WIyWlLk6GJQsqaUBKTNV-1" source="nXRS1IvIqKvb1MXSQ3nY-39" target="nXRS1IvIqKvb1MXSQ3nY-78">
          <mxGeometry relative="1" as="geometry" />
        </mxCell>
        <mxCell id="nXRS1IvIqKvb1MXSQ3nY-39" value="Ch.2" style="whiteSpace=wrap;html=1;rounded=1;arcSize=14;strokeWidth=2;shadow=1;" vertex="1" parent="WIyWlLk6GJQsqaUBKTNV-1">
          <mxGeometry x="707" y="240" width="120" height="60" as="geometry" />
        </mxCell>
        <mxCell id="nXRS1IvIqKvb1MXSQ3nY-88" value="" style="edgeStyle=orthogonalEdgeStyle;rounded=0;orthogonalLoop=1;jettySize=auto;html=1;" edge="1" parent="WIyWlLk6GJQsqaUBKTNV-1" source="nXRS1IvIqKvb1MXSQ3nY-40" target="nXRS1IvIqKvb1MXSQ3nY-85">
          <mxGeometry relative="1" as="geometry" />
        </mxCell>
        <mxCell id="nXRS1IvIqKvb1MXSQ3nY-40" value="Ch.3" style="whiteSpace=wrap;html=1;rounded=1;arcSize=14;strokeWidth=2;shadow=1;" vertex="1" parent="WIyWlLk6GJQsqaUBKTNV-1">
          <mxGeometry x="840" y="240" width="120" height="60" as="geometry" />
        </mxCell>
        <mxCell id="nXRS1IvIqKvb1MXSQ3nY-90" style="edgeStyle=orthogonalEdgeStyle;rounded=0;orthogonalLoop=1;jettySize=auto;html=1;exitX=0.5;exitY=1;exitDx=0;exitDy=0;" edge="1" parent="WIyWlLk6GJQsqaUBKTNV-1" source="nXRS1IvIqKvb1MXSQ3nY-41" target="nXRS1IvIqKvb1MXSQ3nY-84">
          <mxGeometry relative="1" as="geometry" />
        </mxCell>
        <mxCell id="nXRS1IvIqKvb1MXSQ3nY-41" value="Ch.4" style="whiteSpace=wrap;html=1;rounded=1;arcSize=14;strokeWidth=2;shadow=1;" vertex="1" parent="WIyWlLk6GJQsqaUBKTNV-1">
          <mxGeometry x="970" y="240" width="120" height="60" as="geometry" />
        </mxCell>
        <mxCell id="nXRS1IvIqKvb1MXSQ3nY-91" style="edgeStyle=orthogonalEdgeStyle;rounded=0;orthogonalLoop=1;jettySize=auto;html=1;exitX=0.5;exitY=1;exitDx=0;exitDy=0;entryX=0.5;entryY=0;entryDx=0;entryDy=0;" edge="1" parent="WIyWlLk6GJQsqaUBKTNV-1" source="nXRS1IvIqKvb1MXSQ3nY-42" target="nXRS1IvIqKvb1MXSQ3nY-83">
          <mxGeometry relative="1" as="geometry" />
        </mxCell>
        <mxCell id="nXRS1IvIqKvb1MXSQ3nY-42" value="Ch.5" style="whiteSpace=wrap;html=1;rounded=1;arcSize=14;strokeWidth=2;shadow=1;" vertex="1" parent="WIyWlLk6GJQsqaUBKTNV-1">
          <mxGeometry x="1100" y="240" width="120" height="60" as="geometry" />
        </mxCell>
        <mxCell id="nXRS1IvIqKvb1MXSQ3nY-92" style="edgeStyle=orthogonalEdgeStyle;rounded=0;orthogonalLoop=1;jettySize=auto;html=1;exitX=0.5;exitY=1;exitDx=0;exitDy=0;" edge="1" parent="WIyWlLk6GJQsqaUBKTNV-1" source="nXRS1IvIqKvb1MXSQ3nY-43" target="nXRS1IvIqKvb1MXSQ3nY-86">
          <mxGeometry relative="1" as="geometry" />
        </mxCell>
        <mxCell id="nXRS1IvIqKvb1MXSQ3nY-43" value="Epilog" style="whiteSpace=wrap;html=1;rounded=1;arcSize=14;strokeWidth=2;shadow=1;" vertex="1" parent="WIyWlLk6GJQsqaUBKTNV-1">
          <mxGeometry x="1230" y="240" width="120" height="60" as="geometry" />
        </mxCell>
        <mxCell id="nXRS1IvIqKvb1MXSQ3nY-93" style="edgeStyle=orthogonalEdgeStyle;rounded=0;orthogonalLoop=1;jettySize=auto;html=1;exitX=0.5;exitY=1;exitDx=0;exitDy=0;entryX=0.5;entryY=0;entryDx=0;entryDy=0;startArrow=classic;startFill=1;" edge="1" parent="WIyWlLk6GJQsqaUBKTNV-1" source="nXRS1IvIqKvb1MXSQ3nY-54" target="nXRS1IvIqKvb1MXSQ3nY-56">
          <mxGeometry relative="1" as="geometry" />
        </mxCell>
        <mxCell id="nXRS1IvIqKvb1MXSQ3nY-54" value="Gameplay" style="whiteSpace=wrap;html=1;rounded=1;arcSize=14;strokeWidth=2;shadow=1;" vertex="1" parent="WIyWlLk6GJQsqaUBKTNV-1">
          <mxGeometry x="630" y="350" width="120" height="60" as="geometry" />
        </mxCell>
        <mxCell id="nXRS1IvIqKvb1MXSQ3nY-101" value="" style="edgeStyle=orthogonalEdgeStyle;rounded=0;orthogonalLoop=1;jettySize=auto;html=1;" edge="1" parent="WIyWlLk6GJQsqaUBKTNV-1" source="nXRS1IvIqKvb1MXSQ3nY-56" target="nXRS1IvIqKvb1MXSQ3nY-58">
          <mxGeometry relative="1" as="geometry" />
        </mxCell>
        <mxCell id="nXRS1IvIqKvb1MXSQ3nY-102" style="edgeStyle=orthogonalEdgeStyle;rounded=0;orthogonalLoop=1;jettySize=auto;html=1;exitX=0.5;exitY=1;exitDx=0;exitDy=0;" edge="1" parent="WIyWlLk6GJQsqaUBKTNV-1" source="nXRS1IvIqKvb1MXSQ3nY-56" target="nXRS1IvIqKvb1MXSQ3nY-60">
          <mxGeometry relative="1" as="geometry" />
        </mxCell>
        <mxCell id="nXRS1IvIqKvb1MXSQ3nY-103" style="edgeStyle=orthogonalEdgeStyle;rounded=0;orthogonalLoop=1;jettySize=auto;html=1;exitX=0.5;exitY=1;exitDx=0;exitDy=0;" edge="1" parent="WIyWlLk6GJQsqaUBKTNV-1" source="nXRS1IvIqKvb1MXSQ3nY-56" target="nXRS1IvIqKvb1MXSQ3nY-61">
          <mxGeometry relative="1" as="geometry" />
        </mxCell>
        <mxCell id="nXRS1IvIqKvb1MXSQ3nY-56" value="Pause" style="whiteSpace=wrap;html=1;rounded=1;arcSize=14;strokeWidth=2;shadow=1;" vertex="1" parent="WIyWlLk6GJQsqaUBKTNV-1">
          <mxGeometry x="980" y="470" width="120" height="60" as="geometry" />
        </mxCell>
        <mxCell id="nXRS1IvIqKvb1MXSQ3nY-58" value="Resume" style="whiteSpace=wrap;html=1;rounded=1;arcSize=14;strokeWidth=2;shadow=1;" vertex="1" parent="WIyWlLk6GJQsqaUBKTNV-1">
          <mxGeometry x="980" y="570" width="120" height="60" as="geometry" />
        </mxCell>
        <mxCell id="nXRS1IvIqKvb1MXSQ3nY-99" style="edgeStyle=orthogonalEdgeStyle;rounded=0;orthogonalLoop=1;jettySize=auto;html=1;exitX=0;exitY=0.5;exitDx=0;exitDy=0;entryX=1;entryY=0.5;entryDx=0;entryDy=0;" edge="1" parent="WIyWlLk6GJQsqaUBKTNV-1" source="nXRS1IvIqKvb1MXSQ3nY-60" target="nXRS1IvIqKvb1MXSQ3nY-28">
          <mxGeometry relative="1" as="geometry">
            <Array as="points">
              <mxPoint x="560" y="600" />
              <mxPoint x="560" y="410" />
            </Array>
          </mxGeometry>
        </mxCell>
        <mxCell id="nXRS1IvIqKvb1MXSQ3nY-100" style="edgeStyle=orthogonalEdgeStyle;rounded=0;orthogonalLoop=1;jettySize=auto;html=1;exitX=0;exitY=0.5;exitDx=0;exitDy=0;entryX=1;entryY=0.5;entryDx=0;entryDy=0;" edge="1" parent="WIyWlLk6GJQsqaUBKTNV-1" source="nXRS1IvIqKvb1MXSQ3nY-60" target="nXRS1IvIqKvb1MXSQ3nY-35">
          <mxGeometry relative="1" as="geometry">
            <Array as="points">
              <mxPoint x="560" y="600" />
              <mxPoint x="560" y="480" />
            </Array>
          </mxGeometry>
        </mxCell>
        <mxCell id="nXRS1IvIqKvb1MXSQ3nY-60" value="Option" style="whiteSpace=wrap;html=1;rounded=1;arcSize=14;strokeWidth=2;shadow=1;" vertex="1" parent="WIyWlLk6GJQsqaUBKTNV-1">
          <mxGeometry x="840" y="570" width="120" height="60" as="geometry" />
        </mxCell>
        <mxCell id="nXRS1IvIqKvb1MXSQ3nY-117" style="edgeStyle=orthogonalEdgeStyle;rounded=0;orthogonalLoop=1;jettySize=auto;html=1;exitX=0.5;exitY=1;exitDx=0;exitDy=0;entryX=0.5;entryY=1;entryDx=0;entryDy=0;startArrow=none;startFill=0;" edge="1" parent="WIyWlLk6GJQsqaUBKTNV-1" source="nXRS1IvIqKvb1MXSQ3nY-61" target="nXRS1IvIqKvb1MXSQ3nY-2">
          <mxGeometry relative="1" as="geometry">
            <Array as="points">
              <mxPoint x="1181" y="650" />
              <mxPoint x="130" y="650" />
            </Array>
          </mxGeometry>
        </mxCell>
        <mxCell id="nXRS1IvIqKvb1MXSQ3nY-61" value="Main Menu" style="whiteSpace=wrap;html=1;rounded=1;arcSize=14;strokeWidth=2;shadow=1;" vertex="1" parent="WIyWlLk6GJQsqaUBKTNV-1">
          <mxGeometry x="1121" y="570" width="120" height="60" as="geometry" />
        </mxCell>
        <mxCell id="nXRS1IvIqKvb1MXSQ3nY-94" style="edgeStyle=orthogonalEdgeStyle;rounded=0;orthogonalLoop=1;jettySize=auto;html=1;exitX=0.5;exitY=1;exitDx=0;exitDy=0;entryX=0.5;entryY=0;entryDx=0;entryDy=0;startArrow=classic;startFill=1;" edge="1" parent="WIyWlLk6GJQsqaUBKTNV-1" source="nXRS1IvIqKvb1MXSQ3nY-78" target="nXRS1IvIqKvb1MXSQ3nY-56">
          <mxGeometry relative="1" as="geometry" />
        </mxCell>
        <mxCell id="nXRS1IvIqKvb1MXSQ3nY-78" value="Gameplay" style="whiteSpace=wrap;html=1;rounded=1;arcSize=14;strokeWidth=2;shadow=1;" vertex="1" parent="WIyWlLk6GJQsqaUBKTNV-1">
          <mxGeometry x="770" y="350" width="120" height="60" as="geometry" />
        </mxCell>
        <mxCell id="nXRS1IvIqKvb1MXSQ3nY-97" style="edgeStyle=orthogonalEdgeStyle;rounded=0;orthogonalLoop=1;jettySize=auto;html=1;exitX=0.5;exitY=1;exitDx=0;exitDy=0;entryX=0.5;entryY=0;entryDx=0;entryDy=0;startArrow=classic;startFill=1;" edge="1" parent="WIyWlLk6GJQsqaUBKTNV-1" source="nXRS1IvIqKvb1MXSQ3nY-83" target="nXRS1IvIqKvb1MXSQ3nY-56">
          <mxGeometry relative="1" as="geometry" />
        </mxCell>
        <mxCell id="nXRS1IvIqKvb1MXSQ3nY-83" value="Gameplay" style="whiteSpace=wrap;html=1;rounded=1;arcSize=14;strokeWidth=2;shadow=1;" vertex="1" parent="WIyWlLk6GJQsqaUBKTNV-1">
          <mxGeometry x="1190" y="350" width="120" height="60" as="geometry" />
        </mxCell>
        <mxCell id="nXRS1IvIqKvb1MXSQ3nY-96" style="edgeStyle=orthogonalEdgeStyle;rounded=0;orthogonalLoop=1;jettySize=auto;html=1;exitX=0.5;exitY=1;exitDx=0;exitDy=0;startArrow=classic;startFill=1;" edge="1" parent="WIyWlLk6GJQsqaUBKTNV-1" source="nXRS1IvIqKvb1MXSQ3nY-84">
          <mxGeometry relative="1" as="geometry">
            <mxPoint x="1040" y="470" as="targetPoint" />
          </mxGeometry>
        </mxCell>
        <mxCell id="nXRS1IvIqKvb1MXSQ3nY-84" value="Gameplay" style="whiteSpace=wrap;html=1;rounded=1;arcSize=14;strokeWidth=2;shadow=1;" vertex="1" parent="WIyWlLk6GJQsqaUBKTNV-1">
          <mxGeometry x="1050" y="350" width="120" height="60" as="geometry" />
        </mxCell>
        <mxCell id="nXRS1IvIqKvb1MXSQ3nY-95" style="edgeStyle=orthogonalEdgeStyle;rounded=0;orthogonalLoop=1;jettySize=auto;html=1;exitX=0.5;exitY=1;exitDx=0;exitDy=0;startArrow=classic;startFill=1;" edge="1" parent="WIyWlLk6GJQsqaUBKTNV-1" source="nXRS1IvIqKvb1MXSQ3nY-85">
          <mxGeometry relative="1" as="geometry">
            <mxPoint x="1040" y="470" as="targetPoint" />
          </mxGeometry>
        </mxCell>
        <mxCell id="nXRS1IvIqKvb1MXSQ3nY-85" value="Gameplay" style="whiteSpace=wrap;html=1;rounded=1;arcSize=14;strokeWidth=2;shadow=1;" vertex="1" parent="WIyWlLk6GJQsqaUBKTNV-1">
          <mxGeometry x="910" y="350" width="120" height="60" as="geometry" />
        </mxCell>
        <mxCell id="nXRS1IvIqKvb1MXSQ3nY-98" style="edgeStyle=orthogonalEdgeStyle;rounded=0;orthogonalLoop=1;jettySize=auto;html=1;exitX=0.5;exitY=1;exitDx=0;exitDy=0;startArrow=classic;startFill=1;" edge="1" parent="WIyWlLk6GJQsqaUBKTNV-1" source="nXRS1IvIqKvb1MXSQ3nY-86">
          <mxGeometry relative="1" as="geometry">
            <mxPoint x="1040" y="470" as="targetPoint" />
          </mxGeometry>
        </mxCell>
        <mxCell id="nXRS1IvIqKvb1MXSQ3nY-116" style="edgeStyle=orthogonalEdgeStyle;rounded=0;orthogonalLoop=1;jettySize=auto;html=1;exitX=0.75;exitY=1;exitDx=0;exitDy=0;startArrow=none;startFill=0;" edge="1" parent="WIyWlLk6GJQsqaUBKTNV-1" source="nXRS1IvIqKvb1MXSQ3nY-86" target="nXRS1IvIqKvb1MXSQ3nY-107">
          <mxGeometry relative="1" as="geometry" />
        </mxCell>
        <mxCell id="nXRS1IvIqKvb1MXSQ3nY-86" value="Gameplay" style="whiteSpace=wrap;html=1;rounded=1;arcSize=14;strokeWidth=2;shadow=1;" vertex="1" parent="WIyWlLk6GJQsqaUBKTNV-1">
          <mxGeometry x="1330" y="350" width="120" height="60" as="geometry" />
        </mxCell>
        <mxCell id="nXRS1IvIqKvb1MXSQ3nY-109" style="edgeStyle=orthogonalEdgeStyle;rounded=0;orthogonalLoop=1;jettySize=auto;html=1;exitX=1;exitY=0.5;exitDx=0;exitDy=0;entryX=1;entryY=0.5;entryDx=0;entryDy=0;" edge="1" parent="WIyWlLk6GJQsqaUBKTNV-1" source="nXRS1IvIqKvb1MXSQ3nY-107" target="nXRS1IvIqKvb1MXSQ3nY-86">
          <mxGeometry relative="1" as="geometry">
            <Array as="points">
              <mxPoint x="1480" y="520" />
              <mxPoint x="1480" y="380" />
            </Array>
          </mxGeometry>
        </mxCell>
        <mxCell id="nXRS1IvIqKvb1MXSQ3nY-112" style="edgeStyle=orthogonalEdgeStyle;rounded=0;orthogonalLoop=1;jettySize=auto;html=1;exitX=0.5;exitY=1;exitDx=0;exitDy=0;entryX=1;entryY=0.75;entryDx=0;entryDy=0;" edge="1" parent="WIyWlLk6GJQsqaUBKTNV-1" source="nXRS1IvIqKvb1MXSQ3nY-107" target="nXRS1IvIqKvb1MXSQ3nY-15">
          <mxGeometry relative="1" as="geometry">
            <Array as="points">
              <mxPoint x="1407" y="670" />
              <mxPoint x="400" y="670" />
              <mxPoint x="400" y="525" />
            </Array>
          </mxGeometry>
        </mxCell>
        <mxCell id="nXRS1IvIqKvb1MXSQ3nY-107" value="Triger Ending" style="rhombus;whiteSpace=wrap;html=1;rounded=1;arcSize=14;strokeWidth=2;shadow=1;" vertex="1" parent="WIyWlLk6GJQsqaUBKTNV-1">
          <mxGeometry x="1352" y="480" width="110" height="80" as="geometry" />
        </mxCell>
        <mxCell id="nXRS1IvIqKvb1MXSQ3nY-110" value="No" style="text;html=1;strokeColor=none;fillColor=none;align=center;verticalAlign=middle;whiteSpace=wrap;rounded=0;" vertex="1" parent="WIyWlLk6GJQsqaUBKTNV-1">
          <mxGeometry x="1450" y="440" width="37.5" height="30" as="geometry" />
        </mxCell>
        <mxCell id="nXRS1IvIqKvb1MXSQ3nY-113" value="Yes" style="text;html=1;strokeColor=none;fillColor=none;align=center;verticalAlign=middle;whiteSpace=wrap;rounded=0;" vertex="1" parent="WIyWlLk6GJQsqaUBKTNV-1">
          <mxGeometry x="1402" y="563" width="40" height="30" as="geometry" />
        </mxCell>
      </root>
    </mxGraphModel>
  </diagram>
</mxfile>
